<?xml version="1.0" encoding="utf-8"?>
<!-- Generator: Adobe Illustrator 22.0.1, SVG Export Plug-In . SVG Version: 6.00 Build 0)  -->
<svg version="1.1" id="Layer_1" xmlns="http://www.w3.org/2000/svg" xmlns:xlink="http://www.w3.org/1999/xlink" x="0px" y="0px"
	 viewBox="810 495 205 205" xml:space="preserve" role="img" aria-labelledby="icon-title">
<title id="icon-title">JUST404IT browser face</title>
<rect x="810" y="495" width="205" height="205" fill="#0e0f0f"/>
<g>
	<g>
		<g>
			<g>
				<g>
					<path fill="#f6f1e7" d="M444.4,688.8c0,3.4-1.1,6.2-3.2,8.3c-2.1,2.1-4.9,3.2-8.3,3.2h-37.8c-3.4,0-6.2-1.1-8.3-3.2
						c-2.1-2.1-3.2-4.9-3.2-8.3v-41.2H398v40h32V537.8h14.4V688.8z"/>
				</g>
			</g>
			<g>
				<g>
					<path fill="#f6f1e7" d="M537.7,688.8c0,3.4-1.1,6.2-3.3,8.3c-2.2,2.1-5,3.2-8.4,3.2h-44.2c-3.4,0-6.2-1.1-8.3-3.2
						c-2.1-2.1-3.2-4.9-3.2-8.3v-151h14.4v149.7h38.5V537.8h14.4V688.8z"/>
				</g>
			</g>
			<g>
				<g>
					<path fill="#f6f1e7" d="M627,688.8c0,3.4-1.1,6.2-3.2,8.3c-2.1,2.1-4.9,3.2-8.3,3.2h-40.9c-3.4,0-6.2-1.1-8.4-3.2
						c-2.2-2.1-3.3-4.9-3.3-8.3v-41.2h14.4v40h35.1v-38.7l-44.8-54.2c-3.1-3.7-4.7-7.9-4.7-12.4v-32.9c0-3.4,1.1-6.2,3.3-8.3
						c2.2-2.1,5-3.2,8.4-3.2h40.9c3.4,0,6.1,1.1,8.3,3.2c2.1,2.1,3.2,4.9,3.2,8.3v37.8h-14.4v-36.5h-35.1v34.3l45.1,54.2
						c3,3.6,4.5,7.6,4.5,12.1V688.8z"/>
				</g>
			</g>
			<g>
				<g>
					<path fill="#f6f1e7" d="M708.5,550.6h-25.1v149.7h-14.4V550.6h-25.3v-12.8h64.9V550.6z"/>
				</g>
			</g>
			<g>
				<g>
					<path fill="#f6f1e7" d="M1216.4,550.6h-25.1v149.7h-14.4V550.6h-25.3v-12.8h64.9V550.6z"/>
				</g>
			</g>
			<linearGradient id="SVGID_1_" gradientUnits="userSpaceOnUse" x1="760.516" y1="742.5959" x2="760.516" y2="593.0548">
				<stop  offset="0" style="stop-color:#5588EE"/>
				<stop  offset="1" style="stop-color:#AB82FF"/>
			</linearGradient>
			<path fill="#ff5d3d" d="M805,669.7h-12.4v30.6h-23.2v-30.6h-53.4v-14.4l40.4-117.4h24.7c0,0.5,0,0.8,0,0.9L743.3,649h26.2
				v-48.9h23.2V649H805V669.7z"/>
			<linearGradient id="SVGID_2_" gradientUnits="userSpaceOnUse" x1="912.5821" y1="655.6211" x2="912.5821" y2="541.7269">
				<stop  offset="0" style="stop-color:#5588EE"/>
				<stop  offset="1" style="stop-color:#AB82FF"/>
			</linearGradient>
			<path fill="#78c9ff" d="M1002.4,689c0,7.5-3.7,11.3-11.2,11.3H833.8c-7.3,0-11-3.8-11-11.3V511.1
				c0-7.6,3.7-11.4,11.2-11.4h157.2c7.4,0,11.2,3.8,11.2,11.4V689z M984.3,684.4V515.6H841v168.9H984.3z"/>
			<linearGradient id="SVGID_3_" gradientUnits="userSpaceOnUse" x1="1065.0873" y1="742.5959" x2="1065.0873" y2="593.0548">
				<stop  offset="0" style="stop-color:#5588EE"/>
				<stop  offset="1" style="stop-color:#AB82FF"/>
			</linearGradient>
			<path fill="#ec91c8" d="M1109.5,669.7h-12.4v30.6H1074v-30.6h-53.4v-14.4l40.4-117.4h24.7c0,0.5,0,0.8,0,0.9L1047.9,649
				h26.2v-48.9h23.2V649h12.4V669.7z"/>
			<g>
				<g>
					<path fill="#f6f1e7" d="M1139.5,700.3h-13.6V537.8h13.6V700.3z"/>
				</g>
			</g>
		</g>
	</g>
	<path fill="#ff5d3d" d="M922.1,633c0,0-11-1.6-13,4.3v18.5c0,0,2.4,8.3,13,8.3V633z"/>
	<path fill="#ff5d3d" d="M922.1,633c0,0,11-1.6,13,4.3v18.5c0,0-2.4,8.3-13,8.3V633z"/>
	<g>
		<g>
			<g>
				<g>
					<g>
						<line fill="#f6f1e7" x1="859.5" y1="589.2" x2="884.2" y2="614"/>
						<path fill="#f6f1e7" d="M884.2,618c-1,0-2.1-0.4-2.9-1.2l-24.7-24.7c-1.6-1.6-1.6-4.2,0-5.8s4.2-1.6,5.8,0l24.7,24.7
							c1.6,1.6,1.6,4.2,0,5.8C886.3,617.6,885.3,618,884.2,618z"/>
					</g>
					<g>
						<line fill="#f6f1e7" x1="859.5" y1="614" x2="884.2" y2="589.2"/>
						<path fill="#f6f1e7" d="M859.5,618c-1,0-2.1-0.4-2.9-1.2c-1.6-1.6-1.6-4.2,0-5.8l24.7-24.7c1.6-1.6,4.2-1.6,5.8,0
							s1.6,4.2,0,5.8l-24.7,24.7C861.6,617.6,860.5,618,859.5,618z"/>
					</g>
				</g>
				<g>
					<g>
						<line fill="#f6f1e7" x1="941" y1="589.2" x2="965.7" y2="614"/>
						<path fill="#f6f1e7" d="M965.7,618c-1,0-2.1-0.4-2.9-1.2l-24.7-24.7c-1.6-1.6-1.6-4.2,0-5.8c1.6-1.6,4.2-1.6,5.8,0l24.7,24.7
							c1.6,1.6,1.6,4.2,0,5.8C967.8,617.6,966.8,618,965.7,618z"/>
					</g>
					<g>
						<line fill="#f6f1e7" x1="941" y1="614" x2="965.7" y2="589.2"/>
						<path fill="#f6f1e7" d="M941,618c-1,0-2.1-0.4-2.9-1.2c-1.6-1.6-1.6-4.2,0-5.8l24.7-24.7c1.6-1.6,4.2-1.6,5.8,0
							c1.6,1.6,1.6,4.2,0,5.8l-24.7,24.7C943.1,617.6,942,618,941,618z"/>
					</g>
				</g>
			</g>
		</g>
		<g>
			<g>
				<path fill="#f6f1e7" d="M895.9,637.7c26.3-4.7,39.3-2,39.3-2"/>
				<path fill="#f6f1e7" d="M895.9,641.8c-1.9,0-3.6-1.4-4-3.4c-0.4-2.2,1.1-4.3,3.3-4.7c26.7-4.8,40.3-2,40.8-1.9
					c2.2,0.5,3.6,2.6,3.1,4.8c-0.5,2.2-2.6,3.6-4.8,3.1c-0.1,0-12.7-2.5-37.7,2C896.3,641.8,896.1,641.8,895.9,641.8z"/>
			</g>
		</g>
	</g>
	<linearGradient id="SVGID_4_" gradientUnits="userSpaceOnUse" x1="915.5162" y1="655.6211" x2="915.5162" y2="541.7269">
		<stop  offset="0" style="stop-color:#5588EE"/>
		<stop  offset="1" style="stop-color:#AB82FF"/>
	</linearGradient>
	<rect x="832.9" y="511.6" fill="#78c9ff" width="165.2" height="24.4"/>
	<path fill="#FFFFFF" d="M919,523.8h-71.9c-3.4,0-6.1-2.7-6.1-6.1l0,0c0-3.4,2.7-6.1,6.1-6.1H919c3.4,0,6.1,2.7,6.1,6.1l0,0
		C925.1,521.1,922.4,523.8,919,523.8z"/>
	<path fill="#FFFFFF" d="M978.2,523.8h-0.6c-3.4,0-6.1-2.7-6.1-6.1l0,0c0-3.4,2.7-6.1,6.1-6.1h0.6c3.4,0,6.1,2.7,6.1,6.1l0,0
		C984.3,521.1,981.5,523.8,978.2,523.8z"/>
	<path fill="#FFFFFF" d="M960,523.8h-0.6c-3.4,0-6.1-2.7-6.1-6.1l0,0c0-3.4,2.7-6.1,6.1-6.1h0.6c3.4,0,6.1,2.7,6.1,6.1l0,0
		C966.1,521.1,963.4,523.8,960,523.8z"/>
</g>
</svg>
